<?xml version="1.0" encoding="utf-8"?>
<!-- Generator: Adobe Illustrator 27.5.0, SVG Export Plug-In . SVG Version: 6.00 Build 0)  -->
<svg version="1.1" xmlns="http://www.w3.org/2000/svg" xmlns:xlink="http://www.w3.org/1999/xlink" x="0px" y="0px"
	 viewBox="0 0 500 500" style="enable-background:new 0 0 500 500;" xml:space="preserve">
<g id="BACKGROUND">
	<g>
		<rect style="fill:#8ADFED;" width="500" height="500"/>
		<path style="opacity:0.17;fill:#8ADFED;" d="M31.657,123.297c15.042-6.735,29.945-13.346,44.199-21.669
			c29.626-17.299,58.544-38.384,78.946-66.37C162.679,24.453,169.305,12.497,173.476,0H0v140.071
			C9.905,133.403,20.756,128.177,31.657,123.297z"/>
		<path style="opacity:0.17;fill:#8ADFED;" d="M402.911,164.109c-29.241,6.896-59.366,9.126-89.315,7.116
			c-37.934-2.546-75.431-9.385-113.359-11.979c-37.167-2.542-74.427-0.224-109.797,12.204
			c-25.636,9.008-49.463,22.849-69.461,41.298C13.379,219.76,6.418,227.294,0,235.239V500h500V116.662
			C472.701,140.45,437.255,156.009,402.911,164.109z"/>
	</g>
</g>
<g id="OBJECTS">
	<g>
		<g>
			<path style="fill:#018FC9;" d="M403.566,125.019v-8.928h-6.729c-0.237-0.813-0.548-1.592-0.917-2.34l4.721-4.721l-6.313-6.313
				l-4.596,4.596c-0.781-0.421-1.606-0.77-2.465-1.045v-6.475h-8.928v6.475c-0.858,0.275-1.684,0.624-2.465,1.045l-4.596-4.596
				l-6.313,6.313l4.721,4.721c-0.368,0.748-0.679,1.527-0.916,2.34h-6.729v8.928h6.965c0.255,0.728,0.553,1.436,0.914,2.106
				l-4.954,4.954l6.313,6.313l5.08-5.08c0.637,0.314,1.295,0.592,1.981,0.812v7.192h8.928v-7.192
				c0.686-0.22,1.343-0.498,1.981-0.812l5.08,5.08l6.313-6.313l-4.954-4.954c0.361-0.67,0.659-1.378,0.914-2.106H403.566z
				 M388.892,120.196c0,3.363-2.726,6.089-6.088,6.089c-3.362,0-6.088-2.726-6.088-6.089c0-3.363,2.726-6.088,6.088-6.088
				C386.166,114.107,388.892,116.833,388.892,120.196z"/>
			<path style="opacity:0.27;fill:#018FC9;" d="M403.566,125.019v-8.928h-6.729c-0.237-0.813-0.548-1.592-0.917-2.34l4.721-4.721
				l-6.313-6.313l-4.596,4.596c-0.781-0.421-1.606-0.77-2.465-1.045v-6.475h-4.799c0.257,4.776,0.409,9.55,0.482,14.323
				c3.294,0.079,5.941,2.768,5.941,6.081c0,3.314-2.649,6.004-5.945,6.081c-0.078,5.017-0.237,10.03-0.491,15.04h4.812v-7.192
				c0.686-0.22,1.343-0.498,1.981-0.812l5.08,5.08l6.313-6.313l-4.954-4.954c0.361-0.67,0.659-1.378,0.914-2.106H403.566z"/>
		</g>
		<g>
			<path style="fill:#018FC9;" d="M59.192,113.159c-0.369-1.753-8.579-14.069-10.809-14.069c-2.231,0-7.549,5.147-9.094,9.608
				c-1.544,4.461,0,18.702,11.839,32.771c11.839,14.069,21.104,18.016,25.908,18.702c4.804,0.686,12.525-4.461,13.555-5.147
				c1.029-0.686-7.893-13.383-10.638-14.241c-2.745-0.858-6.692,4.461-7.206,4.633s-7.893-2.402-14.069-9.437
				s-7.035-16.986-6.177-17.158C53.358,118.649,59.429,114.283,59.192,113.159z"/>
			<path style="opacity:0.16;fill:#018FC9;" d="M83.289,155.633c-3.691-3.23-7.183-6.658-10.514-10.236
				c-0.008,0.004-0.022,0.016-0.028,0.019c-0.515,0.172-7.893-2.402-14.069-9.437c-5.717-6.511-6.876-15.515-6.337-16.956
				c-3.402-5.144-6.644-10.397-9.761-15.701c-1.412,1.647-2.663,3.566-3.29,5.376c-1.544,4.461,0,18.702,11.839,32.771
				c11.839,14.069,21.104,18.016,25.908,18.702c2.594,0.371,6.033-0.961,8.815-2.371C84.99,157.091,84.134,156.372,83.289,155.633z"
				/>
		</g>
		<g>
			
				<ellipse transform="matrix(0.9219 -0.3875 0.3875 0.9219 -33.5643 133.5888)" style="fill:#F5F6F2;" cx="314.494" cy="150.028" rx="20.456" ry="20.456"/>
			<path style="fill:#F4F6F1;" d="M314.494,129.572c-0.078,0-0.153,0.011-0.23,0.012c-1.196,13.492-2.692,26.958-4.1,40.432
				c1.397,0.301,2.843,0.469,4.331,0.469c11.298,0,20.456-9.159,20.456-20.456C334.95,138.73,325.791,129.572,314.494,129.572z"/>
			<path style="fill:#356193;" d="M314.494,171.929c-12.076,0-21.9-9.825-21.9-21.901c0-12.076,9.824-21.901,21.9-21.901
				c12.076,0,21.901,9.825,21.901,21.901C336.396,162.104,326.57,171.929,314.494,171.929z M314.494,131.127
				c-10.422,0-18.9,8.479-18.9,18.901c0,10.422,8.478,18.901,18.9,18.901c10.422,0,18.901-8.479,18.901-18.901
				C333.396,139.606,324.916,131.127,314.494,131.127z"/>
			<text transform="matrix(1 0 0 1 306.9343 159.8374)" style="fill:#356193; font-family:'Gilroy-ExtraBold'; font-size:27px;">?</text>
		</g>
		<g>
			<g>
				<path style="fill:#356193;" d="M233.86,80.05c-0.06,0-0.13-0.01-0.19-0.02c-0.07-0.01-0.13-0.03-0.19-0.06
					c-0.06-0.02-0.12-0.05-0.17-0.09c-0.06-0.03-0.11-0.08-0.15-0.12c-0.19-0.19-0.3-0.45-0.3-0.71c0-0.06,0.01-0.13,0.02-0.19
					c0.02-0.07,0.03-0.13,0.06-0.19c0.02-0.06,0.06-0.12,0.09-0.17c0.04-0.06,0.08-0.11,0.13-0.16c0.04-0.04,0.09-0.08,0.15-0.12
					c0.05-0.04,0.11-0.07,0.17-0.09c0.06-0.03,0.12-0.05,0.19-0.06c0.19-0.04,0.39-0.02,0.58,0.06c0.12,0.05,0.23,0.12,0.32,0.21
					c0.05,0.05,0.09,0.1,0.12,0.16c0.04,0.05,0.07,0.11,0.1,0.17c0.02,0.06,0.04,0.12,0.05,0.19c0.02,0.06,0.02,0.13,0.02,0.19
					c0,0.07,0,0.13-0.02,0.2c-0.01,0.06-0.03,0.12-0.05,0.18c-0.03,0.06-0.06,0.12-0.1,0.18c-0.03,0.05-0.07,0.1-0.12,0.15
					c-0.09,0.09-0.2,0.16-0.32,0.21C234.12,80.02,233.99,80.05,233.86,80.05z"/>
				<path style="fill:#356193;" d="M427.269,203.84c0-0.56,0.441-1,1-1l0,0c0.55,0,1,0.44,1,1l0,0c0,0.55-0.45,1-1,1l0,0
					C427.71,204.84,427.269,204.39,427.269,203.84z M427.269,197.83c0-0.55,0.441-1,1-1l0,0c0.55,0,1,0.45,1,1l0,0
					c0,0.55-0.45,1-1,1l0,0C427.71,198.83,427.269,198.38,427.269,197.83z M427.269,191.82c0-0.55,0.441-1,1-1l0,0
					c0.55,0,1,0.45,1,1l0,0c0,0.55-0.45,1-1,1l0,0C427.71,192.82,427.269,192.37,427.269,191.82z M427.269,185.81
					c0-0.55,0.441-1,1-1l0,0c0.55,0,1,0.45,1,1l0,0c0,0.55-0.45,1-1,1l0,0C427.71,186.81,427.269,186.36,427.269,185.81z
					 M427.269,179.8c0-0.55,0.441-1,1-1l0,0c0.55,0,1,0.45,1,1l0,0c0,0.55-0.45,1-1,1l0,0
					C427.71,180.8,427.269,180.35,427.269,179.8z M427.269,173.79c0-0.55,0.441-1,1-1l0,0c0.55,0,1,0.45,1,1l0,0c0,0.55-0.45,1-1,1
					l0,0C427.71,174.79,427.269,174.34,427.269,173.79z M427.269,167.78c0-0.55,0.441-1,1-1l0,0c0.55,0,1,0.45,1,1l0,0
					c0,0.55-0.45,1-1,1l0,0C427.71,168.78,427.269,168.33,427.269,167.78z M427.269,161.77c0-0.55,0.441-1,1-1l0,0
					c0.55,0,1,0.45,1,1l0,0c0,0.56-0.45,1-1,1l0,0C427.71,162.77,427.269,162.33,427.269,161.77z M427.269,155.76
					c0-0.55,0.441-1,1-1l0,0c0.55,0,1,0.45,1,1l0,0c0,0.55-0.45,1-1,1l0,0C427.71,156.76,427.269,156.31,427.269,155.76z
					 M427.269,149.75c0-0.55,0.441-1,1-1l0,0c0.55,0,1,0.45,1,1l0,0c0,0.56-0.45,1-1,1l0,0
					C427.71,150.75,427.269,150.31,427.269,149.75z M427.269,143.74c0-0.55,0.441-1,1-1l0,0c0.55,0,1,0.45,1,1l0,0
					c0,0.56-0.45,1-1,1l0,0C427.71,144.74,427.269,144.3,427.269,143.74z M427.269,137.73c0-0.55,0.441-1,1-1l0,0c0.55,0,1,0.45,1,1
					l0,0c0,0.56-0.45,1-1,1l0,0C427.71,138.73,427.269,138.29,427.269,137.73z M427.269,131.73c0-0.56,0.441-1,1-1l0,0
					c0.55,0,1,0.44,1,1l0,0c0,0.55-0.45,1-1,1l0,0C427.71,132.73,427.269,132.28,427.269,131.73z M427.269,125.72
					c0-0.56,0.441-1,1-1l0,0c0.55,0,1,0.44,1,1l0,0c0,0.55-0.45,1-1,1l0,0C427.71,126.72,427.269,126.27,427.269,125.72z
					 M427.269,119.71c0-0.56,0.441-1,1-1l0,0c0.55,0,1,0.44,1,1l0,0c0,0.55-0.45,1-1,1l0,0
					C427.71,120.71,427.269,120.26,427.269,119.71z M427.269,113.7c0-0.55,0.441-1,1-1l0,0c0.55,0,1,0.45,1,1l0,0c0,0.55-0.45,1-1,1
					l0,0C427.71,114.7,427.269,114.25,427.269,113.7z M427.25,107.72c-0.021-0.55,0.41-1.01,0.96-1.03l0,0
					c0.55-0.02,1.02,0.41,1.04,0.97l0,0l0,0l0,0c0.01,0.55-0.42,1.01-0.97,1.03l0,0c-0.011,0-0.02,0-0.03,0l0,0
					C427.71,108.69,427.269,108.26,427.25,107.72z M426.47,101.98c-0.13-0.54,0.2-1.07,0.74-1.2l0,0c0.53-0.13,1.07,0.2,1.2,0.73
					l0,0l0,0l0,0c0.13,0.54-0.2,1.08-0.74,1.21l0,0c-0.07,0.02-0.15,0.03-0.23,0.03l0,0C426.99,102.75,426.58,102.44,426.47,101.98z
					 M424.54,96.52c-0.23-0.5-0.021-1.1,0.479-1.33l0,0c0.5-0.24,1.101-0.02,1.33,0.48l0,0c0.24,0.49,0.021,1.09-0.479,1.32l0,0
					c-0.13,0.07-0.28,0.1-0.42,0.1l0,0C425.069,97.09,424.71,96.88,424.54,96.52z M421.56,91.55L421.56,91.55
					c-0.33-0.44-0.25-1.07,0.2-1.4l0,0c0.44-0.33,1.059-0.24,1.4,0.2l0,0l0,0l0,0c0.33,0.45,0.239,1.07-0.2,1.4l0,0
					c-0.18,0.14-0.391,0.2-0.601,0.2l0,0C422.05,91.95,421.75,91.81,421.56,91.55z M417.63,87.29L417.63,87.29
					c-0.41-0.37-0.45-1-0.08-1.42l0,0c0.36-0.41,1-0.45,1.41-0.08l0,0c0.41,0.37,0.45,1,0.08,1.41l0,0
					c-0.19,0.22-0.471,0.34-0.74,0.34l0,0C418.06,87.54,417.819,87.45,417.63,87.29z M412.93,83.89c-0.479-0.28-0.64-0.89-0.36-1.37
					l0,0c0.28-0.48,0.891-0.64,1.37-0.36l0,0c0.471,0.28,0.641,0.89,0.36,1.36l0,0c-0.19,0.33-0.52,0.5-0.87,0.5l0,0
					C413.26,84.02,413.09,83.98,412.93,83.89z M407.649,81.51c-0.52-0.17-0.81-0.74-0.63-1.26l0,0c0.17-0.53,0.74-0.81,1.261-0.64
					l0,0l0,0l0,0c0.529,0.18,0.81,0.74,0.64,1.27l0,0c-0.14,0.42-0.54,0.68-0.95,0.68l0,0C407.859,81.56,407.76,81.55,407.649,81.51
					z M401.99,80.25c-0.551-0.06-0.94-0.56-0.87-1.11l0,0c0.06-0.55,0.56-0.94,1.109-0.87l0,0c0.551,0.06,0.94,0.56,0.87,1.1l0,0
					c-0.06,0.51-0.49,0.89-0.99,0.89l0,0C402.069,80.26,402.03,80.25,401.99,80.25z M395.109,79.05c0-0.55,0.45-1,1-1l0,0
					c0.551,0,1,0.45,1,1l0,0c0,0.55-0.449,1-1,1l0,0C395.56,80.05,395.109,79.6,395.109,79.05z M389.1,79.05c0-0.55,0.45-1,1-1l0,0
					c0.55,0,1,0.45,1,1l0,0c0,0.55-0.45,1-1,1l0,0C389.55,80.05,389.1,79.6,389.1,79.05z M383.09,79.05c0-0.55,0.45-1,1-1l0,0
					c0.56,0,1,0.45,1,1l0,0c0,0.55-0.44,1-1,1l0,0C383.54,80.05,383.09,79.6,383.09,79.05z M377.08,79.05c0-0.55,0.45-1,1-1l0,0
					c0.56,0,1,0.45,1,1l0,0c0,0.55-0.44,1-1,1l0,0C377.53,80.05,377.08,79.6,377.08,79.05z M371.08,79.05c0-0.55,0.439-1,1-1l0,0
					c0.55,0,1,0.45,1,1l0,0c0,0.55-0.45,1-1,1l0,0C371.52,80.05,371.08,79.6,371.08,79.05z M365.069,79.05c0-0.55,0.441-1,1-1l0,0
					c0.551,0,1,0.45,1,1l0,0c0,0.55-0.449,1-1,1l0,0C365.51,80.05,365.069,79.6,365.069,79.05z M359.06,79.05c0-0.55,0.44-1,1-1l0,0
					c0.55,0,1,0.45,1,1l0,0c0,0.55-0.45,1-1,1l0,0C359.5,80.05,359.06,79.6,359.06,79.05z M353.05,79.05c0-0.55,0.44-1,1-1l0,0
					c0.55,0,1,0.45,1,1l0,0c0,0.55-0.45,1-1,1l0,0C353.49,80.05,353.05,79.6,353.05,79.05z M347.04,79.05c0-0.55,0.45-1,1-1l0,0
					c0.55,0,1,0.45,1,1l0,0c0,0.55-0.45,1-1,1l0,0C347.49,80.05,347.04,79.6,347.04,79.05z M341.03,79.05c0-0.55,0.449-1,1-1l0,0
					c0.55,0,1,0.45,1,1l0,0c0,0.55-0.45,1-1,1l0,0C341.479,80.05,341.03,79.6,341.03,79.05z M335.02,79.05c0-0.55,0.45-1,1-1l0,0
					c0.55,0,1,0.45,1,1l0,0c0,0.55-0.45,1-1,1l0,0C335.47,80.05,335.02,79.6,335.02,79.05z M329.01,79.05c0-0.55,0.45-1,1-1l0,0
					c0.55,0,1,0.45,1,1l0,0c0,0.55-0.45,1-1,1l0,0C329.46,80.05,329.01,79.6,329.01,79.05z M323,79.05c0-0.55,0.45-1,1-1l0,0
					c0.55,0,1,0.45,1,1l0,0c0,0.55-0.45,1-1,1l0,0C323.45,80.05,323,79.6,323,79.05z M316.99,79.05c0-0.55,0.449-1,1-1l0,0
					c0.55,0,1,0.45,1,1l0,0c0,0.55-0.45,1-1,1l0,0C317.439,80.05,316.99,79.6,316.99,79.05z M310.979,79.05c0-0.55,0.45-1,1-1l0,0
					c0.551,0,1,0.45,1,1l0,0c0,0.55-0.449,1-1,1l0,0C311.43,80.05,310.979,79.6,310.979,79.05z M304.97,79.05c0-0.55,0.45-1,1-1l0,0
					c0.55,0,1,0.45,1,1l0,0c0,0.55-0.45,1-1,1l0,0C305.42,80.05,304.97,79.6,304.97,79.05z M298.96,79.05c0-0.55,0.45-1,1-1l0,0
					c0.56,0,1,0.45,1,1l0,0c0,0.55-0.44,1-1,1l0,0C299.41,80.05,298.96,79.6,298.96,79.05z M292.95,79.05c0-0.55,0.449-1,1-1l0,0
					c0.56,0,1,0.45,1,1l0,0c0,0.55-0.44,1-1,1l0,0C293.399,80.05,292.95,79.6,292.95,79.05z M286.939,79.05c0-0.55,0.45-1,1-1l0,0
					c0.561,0,1.011,0.45,1.011,1l0,0c0,0.55-0.45,1-1.011,1l0,0C287.39,80.05,286.939,79.6,286.939,79.05z M280.939,79.05
					c0-0.55,0.44-1,1-1l0,0c0.551,0,1,0.45,1,1l0,0c0,0.55-0.449,1-1,1l0,0C281.38,80.05,280.939,79.6,280.939,79.05z M274.93,79.05
					c0-0.55,0.44-1,1-1l0,0c0.55,0,1,0.45,1,1l0,0c0,0.55-0.45,1-1,1l0,0C275.37,80.05,274.93,79.6,274.93,79.05z M268.92,79.05
					c0-0.55,0.45-1,1-1l0,0c0.55,0,1,0.45,1,1l0,0c0,0.55-0.45,1-1,1l0,0C269.37,80.05,268.92,79.6,268.92,79.05z M262.91,79.05
					c0-0.55,0.449-1,1-1l0,0c0.55,0,1,0.45,1,1l0,0c0,0.55-0.45,1-1,1l0,0C263.359,80.05,262.91,79.6,262.91,79.05z M256.899,79.05
					c0-0.55,0.45-1,1-1l0,0c0.551,0,1,0.45,1,1l0,0c0,0.55-0.449,1-1,1l0,0C257.35,80.05,256.899,79.6,256.899,79.05z M250.89,79.05
					c0-0.55,0.45-1,1-1l0,0c0.55,0,1,0.45,1,1l0,0c0,0.55-0.45,1-1,1l0,0C251.34,80.05,250.89,79.6,250.89,79.05z M244.88,79.05
					c0-0.55,0.45-1,1-1l0,0c0.55,0,1,0.45,1,1l0,0c0,0.55-0.45,1-1,1l0,0C245.33,80.05,244.88,79.6,244.88,79.05z M238.87,79.05
					c0-0.55,0.45-1,1-1l0,0c0.56,0,1,0.45,1,1l0,0c0,0.55-0.44,1-1,1l0,0C239.32,80.05,238.87,79.6,238.87,79.05z"/>
				<path style="fill:#356193;" d="M428.269,210.88c-0.14,0-0.26-0.03-0.39-0.08c-0.12-0.05-0.23-0.12-0.32-0.22
					c-0.05-0.04-0.09-0.09-0.13-0.15c-0.03-0.05-0.06-0.11-0.09-0.17c-0.021-0.06-0.04-0.12-0.05-0.19
					c-0.021-0.06-0.021-0.13-0.021-0.19c0-0.13,0.021-0.26,0.07-0.39c0.05-0.12,0.13-0.23,0.22-0.32c0.09-0.09,0.2-0.17,0.32-0.22
					c0.189-0.07,0.39-0.09,0.58-0.05c0.059,0.01,0.13,0.03,0.189,0.05c0.061,0.03,0.12,0.06,0.17,0.1
					c0.051,0.03,0.11,0.07,0.15,0.12c0.09,0.09,0.17,0.2,0.22,0.32c0.051,0.13,0.07,0.25,0.07,0.39c0,0.26-0.1,0.52-0.29,0.7
					C428.79,210.77,428.53,210.88,428.269,210.88z"/>
			</g>
			<polygon style="fill:#356193;" points="225.152,79.051 235.574,85.068 235.574,73.034 			"/>
			<polygon style="fill:#356193;" points="428.265,218.157 434.317,207.675 422.214,207.675 			"/>
		</g>
		<g>
			<path style="fill:#374E63;" d="M202.378,55.863H159.67c-2.824,0-5.113,2.289-5.113,5.113v46.941c0,2.824,2.289,5.113,5.113,5.113
				h23.217l12.319,9.524v-9.524h7.173c2.824,0,5.113-2.289,5.113-5.113V60.976C207.491,58.152,205.202,55.863,202.378,55.863z"/>
			<path style="opacity:0.1;fill:#374E63;" d="M169.434,55.863h-9.764c-2.824,0-5.113,2.289-5.113,5.113v46.941
				c0,2.824,2.289,5.113,5.113,5.113h23.217l12.319,9.524v-9.524h7.173c2.246,0,4.133-1.458,4.82-3.472
				C191.649,94.128,178.871,76.3,169.434,55.863z"/>
			<path style="fill:#EFF2EB;" d="M176.607,34.185H84.052c-2.421,0-4.383,1.962-4.383,4.383v56.587c0,2.421,1.962,4.383,4.383,4.383
				h23.012l15.461,12.053V99.539h54.082c2.421,0,4.383-1.963,4.383-4.383V38.569C180.991,36.147,179.028,34.185,176.607,34.185z"/>
			<path style="opacity:0.53;fill:#EFF2EB;" d="M79.669,86.796v8.36c0,2.421,1.963,4.383,4.383,4.383h23.012l15.461,12.053V99.539
				h54.082c2.421,0,4.383-1.963,4.383-4.383V38.569c0-0.293-0.031-0.578-0.086-0.854C148.45,56.526,114.49,72.644,79.669,86.796z"/>
			<path style="fill:#4B6277;" d="M170.824,54.836H89.836c-0.547,0-0.991-0.443-0.991-0.991c0-0.547,0.443-0.991,0.991-0.991h80.988
				c0.547,0,0.991,0.443,0.991,0.991C171.814,54.393,171.371,54.836,170.824,54.836z"/>
			<path style="fill:#4B6277;" d="M170.824,68.057H89.836c-0.547,0-0.991-0.443-0.991-0.991s0.443-0.991,0.991-0.991h80.988
				c0.547,0,0.991,0.443,0.991,0.991S171.371,68.057,170.824,68.057z"/>
			<path style="fill:#4B6277;" d="M170.824,83.157H89.836c-0.547,0-0.991-0.443-0.991-0.991c0-0.547,0.443-0.991,0.991-0.991h80.988
				c0.547,0,0.991,0.443,0.991,0.991C171.814,82.714,171.371,83.157,170.824,83.157z"/>
			<path style="fill:#F9FAF8;" d="M86.44,41.788c9.854-0.032,19.707-0.064,29.561-0.096c2.045-0.007,2.049-3.185,0-3.178
				c-9.854,0.032-19.707,0.064-29.561,0.096C84.395,38.616,84.392,41.794,86.44,41.788L86.44,41.788z"/>
			<path style="fill:#F9FAF8;" d="M121.789,41.853c3.232,0.063,6.464,0.126,9.696,0.189c2.046,0.04,2.046-3.139,0-3.179
				c-3.232-0.063-6.464-0.126-9.696-0.189C119.743,38.635,119.743,41.813,121.789,41.853L121.789,41.853z"/>
			<path style="opacity:0.46;fill:#4F6376;" d="M201.062,60.209c-0.041,7.107-0.083,14.215-0.124,21.322
				c-0.012,2.046,3.166,2.048,3.178,0c0.041-7.107,0.083-14.215,0.124-21.322C204.253,58.163,201.074,58.161,201.062,60.209
				L201.062,60.209z"/>
			<path style="opacity:0.46;fill:#4F6376;" d="M200.647,87.193c-0.261,1.777-0.372,3.534-0.255,5.329
				c0.132,2.031,3.311,2.046,3.178,0c-0.097-1.495-0.076-2.999,0.142-4.484c0.124-0.848-0.211-1.708-1.11-1.955
				C201.854,85.877,200.773,86.338,200.647,87.193L200.647,87.193z"/>
		</g>
		<g>
			<path style="fill:#356193;" d="M103.885,109.132l-3.349,5.801c-0.601,1.04,0.15,2.34,1.351,2.34h6.699
				c1.201,0,1.952-1.3,1.351-2.34l-3.349-5.801C105.987,108.092,104.485,108.092,103.885,109.132z"/>
			<path style="fill:#356193;" d="M164.317,179.909l-5.801-3.349c-1.04-0.6-2.34,0.15-2.34,1.351v6.699
				c0,1.201,1.3,1.952,2.34,1.351l5.801-3.35C165.357,182.011,165.357,180.51,164.317,179.909z"/>
			<path style="fill:#356193;" d="M157.31,181.59c0-0.56,0.45-1,1-1l0,0c0.56,0,1,0.44,1,1l0,0c0,0.55-0.44,1-1,1l0,0
				C157.76,182.59,157.31,182.14,157.31,181.59z M151.31,181.59c0-0.56,0.45-1,1-1l0,0c0.56,0,1,0.44,1,1l0,0c0,0.55-0.44,1-1,1l0,0
				C151.76,182.59,151.31,182.14,151.31,181.59z M145.31,181.59c0-0.56,0.45-1,1-1l0,0c0.56,0,1,0.44,1,1l0,0c0,0.55-0.44,1-1,1l0,0
				C145.76,182.59,145.31,182.14,145.31,181.59z M139.31,181.59c0-0.56,0.45-1,1-1l0,0c0.56,0,1,0.44,1,1l0,0c0,0.55-0.44,1-1,1l0,0
				C139.76,182.59,139.31,182.14,139.31,181.59z M133.31,181.59c0-0.56,0.45-1,1-1l0,0c0.56,0,1,0.44,1,1l0,0c0,0.55-0.44,1-1,1l0,0
				C133.76,182.59,133.31,182.14,133.31,181.59z M127.31,181.59c0-0.56,0.45-1,1-1l0,0c0.56,0,1,0.44,1,1l0,0c0,0.55-0.44,1-1,1l0,0
				C127.76,182.59,127.31,182.14,127.31,181.59z M121.31,181.59c0-0.56,0.45-1,1-1l0,0c0.559,0,1,0.44,1,1l0,0c0,0.55-0.441,1-1,1
				l0,0C121.76,182.59,121.31,182.14,121.31,181.59z M116.25,182.55c-0.56-0.03-0.97-0.51-0.93-1.06l0,0
				c0.04-0.55,0.51-0.97,1.06-0.93l0,0c0.56,0.039,0.97,0.51,0.93,1.07l0,0c-0.03,0.52-0.47,0.93-1,0.93l0,0
				C116.29,182.56,116.27,182.56,116.25,182.55z M110.14,180.52c-0.46-0.3-0.6-0.92-0.3-1.38l0,0c0.3-0.47,0.92-0.6,1.39-0.3l0,0
				l0,0l0,0c0.46,0.3,0.59,0.92,0.29,1.38l0,0c-0.19,0.3-0.51,0.46-0.84,0.46l0,0C110.5,180.68,110.31,180.63,110.14,180.52z
				 M105.78,175.79c-0.27-0.49-0.08-1.09,0.4-1.35l0,0c0.49-0.26,1.1-0.08,1.36,0.4l0,0l0,0l0,0c0.26,0.49,0.08,1.1-0.41,1.36l0,0
				c-0.15,0.08-0.31,0.12-0.47,0.12l0,0C106.3,176.32,105.96,176.13,105.78,175.79z M104.24,169.56c0-0.56,0.44-1.01,1-1.01l0,0
				c0.55,0,1,0.45,1,1.01l0,0c0,0.55-0.45,0.99-1,0.99l0,0C104.68,170.55,104.24,170.11,104.24,169.56z M104.24,163.56
				c0-0.56,0.44-1.01,1-1.01l0,0c0.55,0,1,0.45,1,1.01l0,0c0,0.55-0.45,0.99-1,0.99l0,0C104.68,164.55,104.24,164.11,104.24,163.56z
				 M104.24,157.56c0-0.56,0.44-1.01,1-1.01l0,0c0.55,0,1,0.45,1,1.01l0,0c0,0.55-0.45,0.99-1,0.99l0,0
				C104.68,158.55,104.24,158.11,104.24,157.56z M104.24,151.56c0-0.56,0.44-1.01,1-1.01l0,0c0.55,0,1,0.45,1,1.01l0,0
				c0,0.55-0.45,0.99-1,0.99l0,0C104.68,152.55,104.24,152.11,104.24,151.56z M104.24,145.56c0-0.56,0.44-1,1-1l0,0
				c0.55,0,1,0.44,1,1l0,0c0,0.55-0.45,1-1,1l0,0C104.68,146.56,104.24,146.11,104.24,145.56z M104.24,139.56c0-0.56,0.44-1,1-1l0,0
				c0.55,0,1,0.44,1,1l0,0c0,0.55-0.45,1-1,1l0,0C104.68,140.56,104.24,140.11,104.24,139.56z M104.24,133.56c0-0.56,0.44-1,1-1l0,0
				c0.55,0,1,0.44,1,1l0,0c0,0.55-0.45,1-1,1l0,0C104.68,134.56,104.24,134.11,104.24,133.56z M104.24,127.56c0-0.56,0.44-1,1-1l0,0
				c0.55,0,1,0.44,1,1l0,0c0,0.55-0.45,1-1,1l0,0C104.68,128.56,104.24,128.11,104.24,127.56z M104.24,121.56c0-0.56,0.44-1,1-1l0,0
				c0.55,0,1,0.44,1,1l0,0c0,0.55-0.45,1-1,1l0,0C104.68,122.56,104.24,122.11,104.24,121.56z M104.24,115.56c0-0.56,0.44-1,1-1l0,0
				c0.55,0,1,0.44,1,1l0,0c0,0.55-0.45,1-1,1l0,0C104.68,116.56,104.24,116.11,104.24,115.56z"/>
		</g>
	</g>
	<g>
		<rect y="306.815" style="fill:#EFC597;" width="500" height="193.185"/>
		<rect y="301.388" style="fill:#EA882D;" width="500" height="13"/>
		<rect y="307.888" style="opacity:0.15;fill:#EA882D;" width="500" height="6.5"/>
		<g>
			<path style="fill:#374E63;" d="M148.134,282.265H27.025c-1.903,0-3.446-1.543-3.446-3.445v-75.476
				c0-1.903,1.543-3.446,3.446-3.446h121.109c1.903,0,3.445,1.543,3.445,3.446v75.476
				C151.58,280.722,150.037,282.265,148.134,282.265z"/>
			<path style="opacity:0.09;fill:#374E63;" d="M149.051,199.898H84.063c-3.713,6.173-31.633,61.334-42.585,82.367h107.573
				c1.397,0,2.529-1.132,2.529-2.529v-77.308C151.58,201.03,150.447,199.898,149.051,199.898z"/>
			<path style="fill:#4B6073;" d="M100.057,301.388H75.103l3.838-46.588c0.091-1.111,1.02-1.966,2.135-1.966h13.008
				c1.115,0,2.044,0.855,2.135,1.966L100.057,301.388z"/>
			<path style="opacity:0.11;fill:#4B6073;" d="M92.826,252.834c-3.46,16.483-9.372,32.438-14.182,48.554h21.413L96.219,254.8
				c-0.091-1.111-1.02-1.966-2.135-1.966H92.826z"/>
			<path style="fill:#5F7182;" d="M113.088,301.388H62.071v-3.879c0-1.482,1.201-2.684,2.684-2.684h45.649
				c1.482,0,2.684,1.202,2.684,2.684V301.388z"/>
			<path style="opacity:0.16;fill:#5F7182;" d="M106.61,296.587c-14.842,0.806-29.676,1.773-44.539,2.1v2.701h51.017v-4.593
				c0-0.17-0.028-0.332-0.069-0.489C110.875,296.385,108.737,296.471,106.61,296.587z"/>
			<path style="fill:#5F7182;" d="M94.772,243.355H80.387c-0.552,0-1-0.448-1-1c0-0.552,0.448-1,1-1h14.385c0.552,0,1,0.448,1,1
				C95.772,242.907,95.325,243.355,94.772,243.355z"/>
			<path style="fill:#5F7182;" d="M96.772,230.195H78.387c-0.552,0-1-0.448-1-1c0-0.552,0.448-1,1-1h18.385c0.552,0,1,0.448,1,1
				C97.772,229.747,97.325,230.195,96.772,230.195z"/>
			<path style="fill:#5F7182;" d="M98.673,236.749H76.288c-0.552,0-1-0.448-1-1c0-0.552,0.448-1,1-1h22.385c0.552,0,1,0.448,1,1
				C99.673,236.301,99.225,236.749,98.673,236.749z"/>
			<path style="opacity:0.7;fill:#4B6073;" d="M29.494,205.262c7.466-0.037,14.933-0.036,22.4-0.074c1.417-0.007,1.42-2.209,0-2.202
				c-7.466,0.037-14.933,0.036-22.4,0.074C28.077,203.066,28.074,205.269,29.494,205.262L29.494,205.262z"/>
			<path style="opacity:0.7;fill:#4B6073;" d="M56.421,205.262c2.661,0,5.322,0,7.983,0c1.417,0,1.419-2.202,0-2.202
				c-2.661,0-5.322,0-7.983,0C55.004,203.059,55.002,205.262,56.421,205.262L56.421,205.262z"/>
			<path style="opacity:0.5;fill:#5F7182;" d="M81.107,255.871c-0.357,4.965-0.798,9.921-1.322,14.871
				c-0.149,1.408,2.054,1.397,2.202,0c0.524-4.95,0.965-9.906,1.322-14.871C83.411,254.457,81.209,254.464,81.107,255.871
				L81.107,255.871z"/>
			<path style="opacity:0.5;fill:#5F7182;" d="M79.358,274.475c-0.166,1.491-0.331,2.982-0.497,4.473
				c-0.156,1.406,2.047,1.395,2.202,0c0.166-1.491,0.331-2.982,0.497-4.473C81.716,273.069,79.513,273.08,79.358,274.475
				L79.358,274.475z"/>
		</g>
	</g>
	<g>
		<g>
			<path style="fill:#356193;" d="M266.892,377.879c0,0-2.489-41.289,3.98-61.893c0,0,0.035-35.287-2.372-35.902
				c-17.374-4.446-38.095-6.833-67.999,0c-1.863,0.426-3.664,35.473-4.023,36.732c0,0,8.589,37.547,6.588,61.064H266.892z"/>
			<path style="fill:#2B2E38;" d="M237.124,367.022c0,0.915-0.462,1.657-1.032,1.657c-0.57,0-1.032-0.742-1.032-1.657
				c0-0.915,0.462-1.657,1.032-1.657C236.662,365.365,237.124,366.107,237.124,367.022z"/>
			<path style="opacity:0.4;fill:#356193;" d="M231.29,329.887c0.236,1.924,0.362,3.851,0.546,5.777l0.366,5.781
				c0.221,3.854,0.301,7.712,0.454,11.568c0.015,3.859,0.114,7.716,0.06,11.577l-0.107,5.792c-0.097,1.932-0.137,3.863-0.285,5.796
				c0.001,0.028-0.021,0.051-0.049,0.051c-0.026,0-0.048-0.024-0.051-0.049l-0.566-23.144l-0.467-23.146
				c-0.001-0.027,0.021-0.05,0.049-0.051C231.265,329.838,231.287,329.862,231.29,329.887z"/>
			<path style="fill:#FFCAA4;" d="M221.617,364.008c2.027-0.592,13.929-1.678,15.261,3.171c1.332,4.848-1.064,7.17-2.002,7.15
				c-0.938-0.02-15.161,0.497-15.33-1.027C219.377,371.778,219.376,364.663,221.617,364.008z"/>
			<path style="fill:#A04D37;" d="M166.037,244.635c-2.244,0.712,16.336,30.511,64.631,20.991c0,0,44.85,1.823,54.602-41.746
				c0.353-1.575-12.227,2.122-17.022-11.07c-4.795-13.193-3.212-35.987-21.267-43.176c-20.216-8.049-33.849,3.483-33.849,3.483
				s-15.613-2.869-22.557,7.536c-10.139,15.191-5.243,28.968-6.586,39.368C182.646,230.419,177.221,241.087,166.037,244.635z"/>
			<g style="opacity:0.17;">
				<path style="fill:#A04D37;" d="M174.009,255.153c6.745-9.366,10.18-22.085,12.398-33.091
					c3.385-16.797,5.741-38.866,20.846-49.207c0.012-0.027,0.024-0.054,0.036-0.081c-5.169,0.156-12.519,1.595-16.714,7.879
					c-10.139,15.191-5.243,28.968-6.586,39.368c-1.343,10.399-6.768,21.067-17.952,24.615
					C165.135,244.921,167.602,249.909,174.009,255.153z"/>
				<path style="fill:#A04D37;" d="M204.514,179.928c-12.103,12.904-12.546,36.973-16.684,52.683
					c-2.313,8.781-5.752,17.613-10.933,24.72c2.772,1.931,6.096,3.811,9.994,5.42C197.251,237.249,195.469,206.416,204.514,179.928z
					"/>
				<path style="fill:#A04D37;" d="M206.289,239.078c0.887-21.551-0.78-42.867,3.977-63.833c-0.002,0.001-0.004,0.002-0.005,0.003
					c-11.968,27.739-9.062,61.124-19.98,88.779c3.659,1.248,7.762,2.241,12.319,2.841
					C205.048,257.727,205.923,247.979,206.289,239.078z"/>
				<path style="fill:#A04D37;" d="M252.201,203.135c3.064,11.787,5.142,24.274,12.27,34.468c2.633,3.766,5.833,7.168,9.399,9.781
					c3.272-3.787,6.17-8.353,8.412-13.87c-0.013-0.001-0.026-0.001-0.04-0.001c-10.817-0.666-18.794-9.743-22.862-19.07
					c-4.423-10.138-5.983-21.415-11.889-30.922c-2.985-4.805-7.132-8.86-12.536-10.796c-2.334-0.836-4.752-1.249-7.201-1.412
					C240.197,176.889,248.52,188.973,252.201,203.135z"/>
				<path style="fill:#A04D37;" d="M227.541,186.737c3.01,7.088,5.752,14.3,7.929,21.69c3.083,10.463,4.263,20.88,5.026,31.7
					c0.549,7.788,1.227,16.421,3.475,24.083c3.502-0.746,7.434-1.879,11.462-3.595c-2.885-4.918-4.926-10.419-6.546-15.719
					c-3.418-11.184-4.621-22.848-7.484-34.164c-2.132-8.426-5.01-16.805-10.535-23.651c-2.021-2.504-4.276-4.791-6.65-6.955
					C225.423,182.232,226.551,184.405,227.541,186.737z"/>
				<path style="fill:#A04D37;" d="M237.303,247.326c-0.938-10.495-1.224-20.939-3.668-31.239
					c-2.006-8.457-4.917-16.693-8.199-24.733c-1.917-4.695-4.215-8.839-6.728-12.908c0.758,7.171,0.891,14.506,1.321,21.479
					c0.706,11.443,1.411,22.965,1.243,34.434c-0.163,11.114-1.313,22.141-3.475,32.962c4.031-0.253,8.316-0.797,12.871-1.695
					c0,0,3.909,0.153,9.665-0.746C238.705,259.266,237.83,253.22,237.303,247.326z"/>
				<path style="fill:#A04D37;" d="M242.198,200.337c4.167,11.592,5.423,23.844,8.219,35.772c1.742,7.432,4.437,15.956,8.653,22.8
					c4.216-2.167,8.426-5.02,12.256-8.8c-0.008-0.006-0.015-0.011-0.023-0.017c-9.572-7.488-15.037-17.828-18.458-29.288
					c-3.381-11.325-4.732-23.266-11.406-33.325c-4.887-7.366-11.802-12.305-19.889-14.464
					C230.557,180.584,238.023,188.723,242.198,200.337z"/>
				<path style="fill:#A04D37;" d="M243.076,172.951c7.303,5.559,11.068,14.397,13.932,22.843
					c3.812,11.24,6.206,24.342,17.07,31.156c3.221,2.02,6.445,2.827,9.596,2.765c0.604-1.849,1.138-3.792,1.595-5.835
					c0.353-1.575-12.227,2.122-17.022-11.07c-4.795-13.193-3.212-35.987-21.267-43.176c-8.616-3.43-16.023-3.298-21.7-2.024
					C231.591,167.639,237.725,168.879,243.076,172.951z"/>
				<path style="fill:#A04D37;" d="M213.932,267.47c2.229-10.858,3.426-21.927,3.591-33.111c0.164-11.171-0.512-22.39-1.188-33.536
					c-0.524-8.65-0.533-17.952-1.916-26.733c-5.765,23.383-2.962,47.197-4.732,71.166c-0.535,7.239-1.52,14.775-3.417,21.994
					C208.702,267.444,211.261,267.517,213.932,267.47z"/>
			</g>
			<path style="fill:#2B2E38;" d="M191.321,215.391c0,0-3.099-37.391,33.738-37.391c36.837,0,35.735,38.285,35.735,38.285h2.105
				c0,0,4.359-42.189-37.839-42.189c-42.198,0-36.876,41.296-36.876,41.296H191.321z"/>
			<path style="fill:#FFCAA4;" d="M327.474,372.081c0,0,0.219-7.637-4.579-8.323c-4.798-0.685-11.652,1.403-11.652,1.403v8.141
				L327.474,372.081z"/>
			<path style="fill:#EFF2EB;" d="M313.768,362.061c1.437,0.389,0.49,12.454-0.65,12.388c-1.14-0.066-25.196,0.547-32.865-10.828
				c-11.598-17.203-10.736-37.159-12.126-50.009c-0.93-8.591-5.752-20.043-4.39-34.67c0.145-1.558,17.748,2.044,19.698,27.324
				C285.384,331.544,288.016,355.083,313.768,362.061z"/>
			<path style="fill:#374E63;" d="M330.007,369.126h-51.445c-1.416,0-2.564,1.148-2.564,2.564v2.412h56.572v-2.412
				C332.57,370.273,331.423,369.126,330.007,369.126z"/>
			<path style="fill:#FFCAA4;" d="M220.079,260.585c0,0,4.123,9.961-0.388,14.9c-1.69,1.85-7.745,1.344-8.345,2.796
				c-0.6,1.452,15.984,50.115,19.924,50.534c3.94,0.419,18.019-51.114,18.207-51.698c0.187-0.584-8.335-0.608-9.268-2.855
				c-1.406-3.385-1.189-9.217,0.942-14.857L220.079,260.585z"/>
			<path style="opacity:0.34;fill:#FFCAA4;" d="M239.332,268.59c0.043-2.815,0.625-6.025,1.819-9.184l-21.071,1.179
				c0,0,1.627,3.949,1.711,8.107C227.637,268.683,233.484,268.651,239.332,268.59z"/>
			<path style="fill:#E1E6D9;" d="M243.845,275.908c-7.394,5.341-19.774,6.033-26.73,0.749c0,0-5.292,0.469-5.77,1.624
				c-0.6,1.452,18.569,39.574,22.509,39.993c3.94,0.419,15.434-40.573,15.622-41.157
				C249.619,276.674,250.134,277.618,243.845,275.908z"/>
			<path style="fill:#EFF2EB;" d="M232.999,279.233c0,0,7.107-5.179,8.152-5.082c1.045,0.096,6.053,1.987,6.103,2.088
				c0.305,0.608-11.175,9.321-12.307,9.739C233.815,286.394,231.756,280.123,232.999,279.233z"/>
			<path style="fill:#EFF2EB;" d="M228.581,279.233c0,0-7.106-5.179-8.152-5.082c-1.045,0.096-5.439,2.643-5.536,2.701
				c-0.096,0.058,10.601,8.728,11.732,9.145C227.757,286.414,229.823,280.123,228.581,279.233z"/>
			<path style="fill:#2B2E38;" d="M229.716,281.642c0,0-4.251,29.186-4.126,30.358s2.748,16.041,5.68,16.815
				c0,0,7.822-15.627,7.688-16.482c-0.134-0.855-7.116-30.691-7.116-30.691H229.716z"/>
			<path style="opacity:0.22;fill:#2B2E38;" d="M231.841,281.642h-0.695c0.415,13.552,0.369,26.869-2.001,40.324
				c-0.161,0.915-0.324,1.845-0.489,2.779c0.795,2.177,1.688,3.825,2.613,4.069c0,0,7.822-15.627,7.688-16.482
				C238.823,311.478,231.841,281.642,231.841,281.642z"/>
			<path style="fill:#EFF2EB;" d="M201.499,280.537c-0.497-2.601-18.407,3.761-21.466,30.851
				c-2.411,21.346-2.704,42.637,10.247,57.073c6.486,7.229,32.204,7.749,32.294,6.519c0.09-1.23-0.109-14.163-2.071-13.702
				c-1.962,0.462-16.849,0.442-21.464-8.246c-5.998-11.293-1.46-34.756-1.46-34.756S205.067,299.197,201.499,280.537z"/>
			<path style="fill:#374E63;" d="M241.328,373.698c0,0-2.237-5.159-9.594-5.016c-7.357,0.143-9.505,4.42-9.594,5.42
				C222.051,375.101,240.64,374.973,241.328,373.698z"/>
			<path style="fill:#4F76A1;" d="M248.008,275.908c2.603,0,10.67,10.509,9.811,14.114c-0.738,3.096-12.46,8.373-12.706,9.213
				c-0.246,0.839,0.447,17.688-1.311,19.039c-1.758,1.351-11.748,11.148-12.533,10.541
				C230.484,328.208,245.444,275.908,248.008,275.908z"/>
			<path style="fill:#4F76A1;" d="M213.58,277.043c-3.253-0.001-9.878,9.375-9.019,12.979c0.738,3.096,12.46,8.373,12.706,9.213
				c0.246,0.839-0.447,17.688,1.311,19.039c1.758,1.351,11.748,11.148,12.533,10.541
				C231.896,328.208,216.144,277.044,213.58,277.043z"/>
			<path style="fill:#FFCAA4;" d="M192.604,213.09c-1.231,0.306,2.3,19.155,6.179,30.09c5.161,14.55,23.139,22.605,32.45,21.904
				c9.247-0.696,22.783-13.192,27.177-26.034c3.959-11.569,1.566-24.232,1.566-24.232s-23.088,3.955-43.377-19.629
				C216.598,195.19,205.358,209.922,192.604,213.09z"/>
			<path style="fill:#8C4F46;" d="M225.808,249.152c4.57,1.623,8.883-0.364,12.699-2.864c0.754-0.494,0.05-1.712-0.709-1.214
				c-3.51,2.3-7.387,4.225-11.616,2.723C225.328,247.493,224.96,248.851,225.808,249.152L225.808,249.152z"/>
			<path style="opacity:0.14;fill:#FFCAA4;" d="M223.995,245.178c-10.668-10.139-16.871-23.17-21.262-36.883
				c-3.117,2.119-6.563,3.909-10.129,4.794c-1.231,0.306,2.3,19.155,6.179,30.09c5.161,14.55,23.14,22.605,32.45,21.904
				c4.125-0.31,9.102-2.972,13.741-6.962C237.406,255.372,230.361,251.228,223.995,245.178z"/>
			<path style="fill:#2B2E38;" d="M209.743,251.302c-4.18,0-7.931-0.3-9.71-1.206c-5.143-2.622-8.445-18.184-8.582-18.681
				l1.808-0.496c0.87,3.168,3.966,15.642,7.625,17.507c3.76,1.917,20.279,0.58,26.326-0.096l0.209,1.863
				C225.957,250.355,217.173,251.302,209.743,251.302z"/>
			<path style="fill:#2B2E38;" d="M259.59,211.956c-1.836,1.369-1.288,17.938,0,19.065c1.288,1.127,7.91,0.392,7.795-9.293
				C267.271,212.042,261.425,210.587,259.59,211.956z"/>
			<path style="fill:#2B2E38;" d="M192.604,213.09c1.984,1.143,3.392,17.661,2.246,18.932c-1.147,1.271-7.809,1.321-8.836-8.31
				C184.986,214.08,190.62,211.947,192.604,213.09z"/>
			<path style="opacity:0.17;fill:#2B2E38;" d="M262.556,211.794c-1.2-0.436-2.327-0.315-2.966,0.161
				c-1.836,1.369-1.288,17.938,0,19.065c0.745,0.652,3.271,0.667,5.25-1.299C262.436,224.212,262.105,218.292,262.556,211.794z"/>
			<path style="opacity:0.17;fill:#2B2E38;" d="M192.604,213.09c-0.774-0.446-2.102-0.382-3.375,0.419
				c1.919,6.191,2.99,12.621,3.077,19.064c1.182,0.152,2.165-0.131,2.544-0.551C195.996,230.751,194.588,214.233,192.604,213.09z"/>
			<path style="fill:#2B2E38;" d="M221.942,247.604c-0.827,0.601-0.302,4.341,0.352,4.807c0.961,0.685,8.652-1.239,9.935-1.602
				c1.603-0.454,1.603-3.974-0.449-4.295C230.639,246.336,223,246.835,221.942,247.604z"/>
			<path style="opacity:0.17;fill:#2B2E38;" d="M221.521,249.136c-0.016,1.305,0.351,2.974,0.774,3.275
				c0.961,0.685,8.652-1.239,9.935-1.602c0.922-0.261,1.31-1.536,1.086-2.633C229.401,248.667,225.473,249.015,221.521,249.136z"/>
			<path style="fill:#8C4F46;" d="M238.519,223.88c0,1.093-0.622,1.979-1.39,1.979c-0.768,0-1.39-0.886-1.39-1.979
				s0.622-1.979,1.39-1.979C237.897,221.901,238.519,222.787,238.519,223.88z"/>
			<ellipse style="fill:#8C4F46;" cx="216.598" cy="223.88" rx="1.39" ry="1.979"/>
			<path style="fill:#8C4F46;" d="M224.225,233.755c1.89-1.185,4.133-1.266,6.088-0.18c0.792,0.439,1.501-0.774,0.709-1.214
				c-2.381-1.322-5.195-1.269-7.507,0.18C222.751,233.02,223.456,234.237,224.225,233.755L224.225,233.755z"/>
			<path style="fill:#FFD4B5;" d="M216.707,204.587c6.016,6.458,13.512,10.968,22.028,13.278c1.748,0.474,2.494-2.237,0.747-2.711
				c-8.07-2.189-15.09-6.439-20.787-12.555C217.459,201.272,215.474,203.263,216.707,204.587L216.707,204.587z"/>
			<path style="fill:#FFD4B5;" d="M243.856,219.253c2.342,0.497,4.706,0.726,7.101,0.654c1.805-0.054,1.813-2.866,0-2.811
				c-2.148,0.065-4.25-0.107-6.353-0.553C242.839,216.168,242.085,218.877,243.856,219.253L243.856,219.253z"/>
			<path style="opacity:0.47;fill:#AD6653;" d="M224.732,171.784c7.928-0.957,15.723-0.535,22.695,3.707
				c1.162,0.707,2.223-1.116,1.064-1.821c-7.27-4.423-15.464-4.996-23.759-3.995C223.402,169.836,223.386,171.947,224.732,171.784
				L224.732,171.784z"/>
			<path style="opacity:0.47;fill:#AD6653;" d="M250.423,178.009c1.616,1.161,3.034,2.555,4.266,4.115
				c0.841,1.064,2.324-0.437,1.491-1.491c-1.35-1.709-2.926-3.175-4.693-4.445C250.384,175.395,249.33,177.223,250.423,178.009
				L250.423,178.009z"/>
			<path style="opacity:0.47;fill:#AD6653;" d="M195.321,209.11c5.094-1.183,9.37-4.152,12.336-8.445
				c0.773-1.119-1.054-2.175-1.821-1.064c-2.656,3.844-6.535,6.421-11.076,7.476C193.439,207.384,193.998,209.417,195.321,209.11
				L195.321,209.11z"/>
			<path style="opacity:0.47;fill:#AD6653;" d="M209.315,198.608c0.804-0.984,1.417-2.032,1.883-3.214
				c0.209-0.53-0.229-1.158-0.736-1.297c-0.598-0.164-1.088,0.204-1.297,0.736c-0.322,0.818-0.784,1.603-1.34,2.284
				c-0.36,0.44-0.431,1.06,0,1.491C208.196,198.979,208.952,199.051,209.315,198.608L209.315,198.608z"/>
			<path style="fill:#2B2E38;" d="M226.495,279.472c-0.808,1.143,3.072,5.959,5.096,5.501c2.024-0.458,5.179-5.092,4.229-6.065
				C234.87,277.935,227.486,278.072,226.495,279.472z"/>
			<path style="fill:#2B2E38;" d="M236.703,339.117c0,0.915-0.462,1.657-1.032,1.657c-0.57,0-1.032-0.742-1.032-1.657
				c0-0.915,0.462-1.657,1.032-1.657C236.241,337.46,236.703,338.202,236.703,339.117z"/>
			<ellipse style="fill:#2B2E38;" cx="235.671" cy="353.033" rx="1.032" ry="1.657"/>
		</g>
		<g>
			<rect y="384.615" style="fill:#F5DBBF;" width="500" height="115.385"/>
			<polygon style="opacity:0.25;fill:#F5DBBF;" points="85.396,384.615 500,384.615 500,500 318.406,500 			"/>
			<rect y="374.308" style="fill:#EC9442;" width="500" height="14"/>
			<rect y="381.308" style="opacity:0.23;fill:#EC9442;" width="500" height="7"/>
		</g>
		<g>
			<path style="fill:#374E63;" d="M454.746,348.05H287.264c-1.903,0-3.445-1.543-3.445-3.445V239.288
				c0-1.903,1.543-3.445,3.445-3.445h167.482c1.903,0,3.445,1.543,3.445,3.445v105.316
				C458.191,346.507,456.649,348.05,454.746,348.05z"/>
			<path style="opacity:0.09;fill:#374E63;" d="M454.746,235.843h-88.532c-5.058,8.409-43.094,83.554-58.013,112.207h146.545
				c1.903,0,3.445-1.543,3.445-3.445V239.288C458.191,237.386,456.649,235.843,454.746,235.843z"/>
			<path style="fill:#4B6073;" d="M388.002,374.101h-33.995l5.228-63.466c0.125-1.514,1.39-2.679,2.909-2.679h17.721
				c1.519,0,2.784,1.165,2.909,2.679L388.002,374.101z"/>
			<path style="opacity:0.11;fill:#4B6073;" d="M378.152,307.957c-4.714,22.454-12.767,44.19-19.32,66.145h29.171l-5.228-63.466
				c-0.125-1.514-1.39-2.679-2.909-2.679H378.152z"/>
			<path style="fill:#5F7182;" d="M405.755,374.101h-69.499v-6.257c0-1.482,1.202-2.684,2.684-2.684h64.132
				c1.482,0,2.684,1.202,2.684,2.684V374.101z"/>
			<path style="opacity:0.16;fill:#5F7182;" d="M396.93,367.561c-20.219,1.098-40.427,2.414-60.675,2.861v3.68h69.499v-6.257
				c0-0.231-0.038-0.452-0.093-0.666C402.74,367.286,399.827,367.404,396.93,367.561z"/>
			<path style="fill:#5F7182;" d="M380.804,295.044h-19.598c-0.752,0-1.362-0.61-1.362-1.362c0-0.752,0.61-1.362,1.362-1.362h19.598
				c0.752,0,1.362,0.61,1.362,1.362C382.166,294.434,381.556,295.044,380.804,295.044z"/>
			<path style="fill:#5F7182;" d="M383.528,277.116h-25.046c-0.752,0-1.362-0.61-1.362-1.362c0-0.752,0.61-1.362,1.362-1.362h25.046
				c0.752,0,1.362,0.61,1.362,1.362C384.891,276.506,384.28,277.116,383.528,277.116z"/>
			<path style="fill:#5F7182;" d="M386.117,286.044h-30.495c-0.752,0-1.362-0.61-1.362-1.362c0-0.752,0.61-1.362,1.362-1.362h30.495
				c0.752,0,1.362,0.61,1.362,1.362C387.479,285.434,386.869,286.044,386.117,286.044z"/>
			<path style="opacity:0.7;fill:#4B6073;" d="M291.875,243.15c10.172-0.051,20.343-0.049,30.515-0.101c1.93-0.01,1.934-3.01,0-3
				c-10.172,0.052-20.343,0.049-30.515,0.101C289.945,240.16,289.941,243.16,291.875,243.15L291.875,243.15z"/>
			<path style="opacity:0.7;fill:#4B6073;" d="M328.558,243.15c3.625,0,7.25,0,10.875,0c1.93,0,1.934-3,0-3
				c-3.625,0-7.25,0-10.875,0C326.628,240.15,326.624,243.15,328.558,243.15L328.558,243.15z"/>
			<path style="opacity:0.5;fill:#5F7182;" d="M362.188,312.095c-0.487,6.763-1.087,13.515-1.801,20.258
				c-0.203,1.918,2.799,1.903,3,0c0.714-6.743,1.314-13.495,1.801-20.258C365.326,310.168,362.326,310.177,362.188,312.095
				L362.188,312.095z"/>
			<path style="opacity:0.5;fill:#5F7182;" d="M359.805,337.438c-0.226,2.031-0.451,4.062-0.677,6.094c-0.213,1.916,2.789,1.901,3,0
				c0.226-2.031,0.451-4.062,0.677-6.094C363.017,335.522,360.016,335.538,359.805,337.438L359.805,337.438z"/>
		</g>
	</g>
</g>
<g id="DESIGNED_BY_FREEPIK">
	<g>
		<g id="XMLID_319_">
			<g id="XMLID_338_">
				<path id="XMLID_346_" style="fill:#1D262D;" d="M260.104,460.465c-0.432,0.443-0.803,0.931-1.108,1.453l-0.465-0.241
					c-0.067-0.298-0.349-0.503-0.659-0.466c-0.331,0.039-0.568,0.339-0.529,0.67c0.039,0.331,0.339,0.568,0.67,0.529
					c0.065-0.008,0.127-0.026,0.183-0.052l0.452,0.234c-0.251,0.554-0.433,1.139-0.539,1.744l0.747,0.132
					c0.23-1.306,0.85-2.507,1.792-3.473L260.104,460.465z"/>
				<path id="XMLID_345_" style="fill:#1D262D;" d="M265.592,458.163c-0.171,0-0.341,0.006-0.51,0.017l-0.074-0.626
					c0.188-0.149,0.296-0.389,0.266-0.645c-0.046-0.393-0.402-0.674-0.795-0.628c-0.393,0.046-0.674,0.402-0.628,0.795
					c0.03,0.254,0.189,0.461,0.405,0.564l0.073,0.624c-0.714,0.116-1.403,0.332-2.06,0.646l0.327,0.684
					c0.934-0.447,1.942-0.673,2.995-0.673c0.496,0,0.993,0.053,1.475,0.158l0.161-0.741
					C266.692,458.222,266.142,458.163,265.592,458.163z"/>
				<path id="XMLID_344_" style="fill:#1D262D;" d="M272.194,460.711c0.331-0.04,0.566-0.341,0.526-0.672
					c-0.04-0.331-0.341-0.566-0.672-0.526c-0.309,0.038-0.535,0.304-0.53,0.609l-0.416,0.363c-0.418-0.43-0.89-0.813-1.408-1.139
					l-0.404,0.641c1.134,0.715,2.021,1.726,2.563,2.925l0.691-0.313c-0.251-0.554-0.568-1.072-0.942-1.545l0.402-0.351
					C272.065,460.716,272.129,460.719,272.194,460.711z"/>
				<path id="XMLID_343_" style="fill:#1D262D;" d="M265.044,468.372c-0.386,0.023-0.775,0.035-1.157,0.035
					c-0.88,0-1.733-0.061-2.478-0.179c-0.39-0.062-0.846-0.155-1.27-0.292c1.046,1.861,3.069,3.125,5.388,3.125
					c2.855,0,5.262-1.916,5.95-4.504c-0.682,0.449-1.505,0.825-2.459,1.123C267.839,468.047,266.464,468.286,265.044,468.372z"/>
				<path id="XMLID_339_" style="fill:#1D262D;" d="M265.592,459.68c-3.352,0-6.08,2.666-6.08,5.943
					c0,0.426,0.046,0.849,0.137,1.261c0.673,0.483,2.706,0.89,5.348,0.731c2.879-0.173,5.297-0.957,6.672-2.159
					c-0.005-0.195-0.021-0.39-0.045-0.582C271.244,461.913,268.65,459.68,265.592,459.68z M263.432,466.194
					c-1.02,0-1.85-0.83-1.85-1.85c0-1.02,0.83-1.85,1.85-1.85c1.02,0,1.85,0.83,1.85,1.85
					C265.282,465.365,264.452,466.194,263.432,466.194z M268.17,465.286c-0.75,0-1.36-0.61-1.36-1.36s0.61-1.361,1.36-1.361
					c0.75,0,1.361,0.61,1.361,1.361S268.92,465.286,268.17,465.286z"/>
			</g>
			<path id="XMLID_336_" style="fill:#1D262D;" d="M281.595,461.547c-0.295-0.116-0.805-0.309-1.382-0.237
				c-0.551,0.069-0.844,0.341-0.844,1.007v0.866h2.228v1.717h-2.228v5.455h-1.932v-5.455h-1.34v-1.717h1.34v-0.888
				c0-1.68,0.896-2.783,2.568-2.783c0.643,0,1.157,0.122,1.59,0.308L281.595,461.547z"/>
			<path id="XMLID_334_" style="fill:#1D262D;" d="M286.298,464.879c-0.177-0.03-0.358-0.046-0.526-0.046
				c-0.896,0-1.51,0.548-1.51,1.614v3.908h-1.932v-7.172h1.873v0.785c0.451-0.673,1.14-0.977,2.021-0.977
				c0.414,0,0.848,0.128,1.094,0.337L286.298,464.879z"/>
			<path id="XMLID_331_" style="fill:#1D262D;" d="M293.965,466.757c0,0.222-0.015,0.489-0.037,0.651h-5.085
				c0.207,1.036,0.933,1.488,1.843,1.488c0.622,0,1.295-0.252,1.813-0.688l1.132,1.243c-0.814,0.748-1.85,1.088-3.057,1.088
				c-2.198,0-3.723-1.495-3.723-3.753c0-2.258,1.48-3.797,3.627-3.797C292.544,462.99,293.958,464.522,293.965,466.757z
				 M288.851,466.091h3.175c-0.177-0.918-0.733-1.436-1.562-1.436C289.554,464.655,289.021,465.203,288.851,466.091z"/>
			<path id="XMLID_328_" style="fill:#1D262D;" d="M301.618,466.757c0,0.222-0.015,0.489-0.037,0.651h-5.085
				c0.207,1.036,0.933,1.488,1.843,1.488c0.622,0,1.295-0.252,1.813-0.688l1.132,1.243c-0.814,0.748-1.85,1.088-3.057,1.088
				c-2.198,0-3.723-1.495-3.723-3.753c0-2.258,1.48-3.797,3.627-3.797C300.197,462.99,301.611,464.522,301.618,466.757z
				 M296.504,466.091h3.175c-0.178-0.918-0.733-1.436-1.562-1.436C297.207,464.655,296.674,465.203,296.504,466.091z"/>
			<path id="XMLID_325_" style="fill:#1D262D;" d="M309.964,466.764c0,2.154-1.495,3.775-3.471,3.775
				c-0.962,0-1.643-0.378-2.109-0.933v3.708h-1.924v-10.133h1.887v0.792c0.466-0.585,1.155-0.984,2.139-0.984
				C308.469,462.99,309.964,464.61,309.964,466.764z M304.287,466.764c0,1.132,0.747,1.976,1.843,1.976
				c1.14,0,1.85-0.881,1.85-1.976c0-1.095-0.71-1.976-1.85-1.976C305.035,464.788,304.287,465.632,304.287,466.764z"/>
			<path id="XMLID_322_" style="fill:#1D262D;" d="M313.068,460.836c0,0.696-0.54,1.229-1.236,1.229
				c-0.696,0-1.229-0.533-1.229-1.229c0-0.696,0.533-1.243,1.229-1.243C312.527,459.592,313.068,460.14,313.068,460.836z
				 M312.809,470.354h-1.932v-7.172h1.932V470.354z"/>
			<path id="XMLID_320_" style="fill:#1D262D;" d="M316.032,465.736l2.701-2.554h2.368l-3.479,3.375l3.501,3.797h-2.376
				l-2.716-2.901v2.901H314.1v-10.658h1.932V465.736z"/>
		</g>
		<g>
			<path style="fill:#1D262D;" d="M184.412,470.289v-1.055c-0.527,0.718-1.391,1.23-2.387,1.23c-1.846,0-3.149-1.406-3.149-3.706
				c0-2.256,1.289-3.721,3.149-3.721c0.952,0,1.816,0.469,2.387,1.245v-3.765h1.099v9.77H184.412z M184.412,468.37v-3.208
				c-0.395-0.615-1.245-1.143-2.124-1.143c-1.421,0-2.27,1.172-2.27,2.739c0,1.567,0.85,2.724,2.27,2.724
				C183.168,469.483,184.017,468.986,184.412,468.37z"/>
			<path style="fill:#1D262D;" d="M186.932,466.744c0-2.051,1.465-3.706,3.486-3.706c2.139,0,3.398,1.67,3.398,3.794v0.279h-5.727
				c0.088,1.333,1.025,2.446,2.549,2.446c0.805,0,1.626-0.322,2.182-0.894l0.527,0.718c-0.703,0.703-1.655,1.084-2.812,1.084
				C188.44,470.465,186.932,468.956,186.932,466.744z M190.403,463.947c-1.509,0-2.256,1.274-2.314,2.358h4.643
				C192.718,465.25,192.015,463.947,190.403,463.947z"/>
			<path style="fill:#1D262D;" d="M194.607,469.351l0.571-0.791c0.469,0.542,1.362,1.011,2.329,1.011c1.084,0,1.67-0.513,1.67-1.216
				c0-1.714-4.38-0.659-4.38-3.281c0-1.098,0.952-2.036,2.636-2.036c1.201,0,2.051,0.454,2.622,1.026l-0.513,0.762
				c-0.424-0.513-1.201-0.894-2.109-0.894c-0.967,0-1.567,0.483-1.567,1.113c0,1.552,4.38,0.527,4.38,3.281
				c0,1.187-0.952,2.138-2.783,2.138C196.306,470.465,195.325,470.113,194.607,469.351z"/>
			<path style="fill:#1D262D;" d="M201.477,461.471c0-0.41,0.337-0.747,0.732-0.747c0.41,0,0.747,0.337,0.747,0.747
				c0,0.41-0.337,0.732-0.747,0.732C201.814,462.203,201.477,461.881,201.477,461.471z M201.667,470.289v-7.075h1.099v7.075H201.667
				z"/>
			<path style="fill:#1D262D;" d="M204.582,472.105l0.556-0.82c0.586,0.703,1.289,0.967,2.3,0.967c1.172,0,2.27-0.571,2.27-2.124
				v-1.011c-0.513,0.718-1.377,1.26-2.373,1.26c-1.845,0-3.149-1.377-3.149-3.662c0-2.27,1.289-3.677,3.149-3.677
				c0.952,0,1.802,0.469,2.373,1.245v-1.069h1.098v6.87c0,2.344-1.641,3.076-3.369,3.076
				C206.237,473.16,205.417,472.926,204.582,472.105z M209.709,468.253v-3.091c-0.381-0.615-1.23-1.143-2.109-1.143
				c-1.421,0-2.27,1.128-2.27,2.695c0,1.553,0.849,2.695,2.27,2.695C208.478,469.41,209.328,468.868,209.709,468.253z"/>
			<path style="fill:#1D262D;" d="M217.413,470.289v-4.629c0-1.245-0.63-1.641-1.582-1.641c-0.865,0-1.685,0.527-2.095,1.099v5.17
				h-1.099v-7.075h1.099v1.025c0.498-0.586,1.465-1.201,2.519-1.201c1.48,0,2.256,0.747,2.256,2.285v4.966H217.413z"/>
			<path style="fill:#1D262D;" d="M219.932,466.744c0-2.051,1.465-3.706,3.486-3.706c2.139,0,3.398,1.67,3.398,3.794v0.279h-5.727
				c0.088,1.333,1.025,2.446,2.549,2.446c0.806,0,1.626-0.322,2.183-0.894l0.527,0.718c-0.703,0.703-1.655,1.084-2.812,1.084
				C221.441,470.465,219.932,468.956,219.932,466.744z M223.404,463.947c-1.509,0-2.256,1.274-2.314,2.358h4.643
				C225.718,465.25,225.015,463.947,223.404,463.947z"/>
			<path style="fill:#1D262D;" d="M233.35,470.289v-1.055c-0.527,0.718-1.392,1.23-2.388,1.23c-1.846,0-3.149-1.406-3.149-3.706
				c0-2.256,1.289-3.721,3.149-3.721c0.952,0,1.817,0.469,2.388,1.245v-3.765h1.098v9.77H233.35z M233.35,468.37v-3.208
				c-0.396-0.615-1.245-1.143-2.124-1.143c-1.421,0-2.27,1.172-2.27,2.739c0,1.567,0.849,2.724,2.27,2.724
				C232.105,469.483,232.954,468.986,233.35,468.37z"/>
			<path style="fill:#1D262D;" d="M239.692,470.289v-9.77h1.098v3.765c0.572-0.776,1.421-1.245,2.388-1.245
				c1.845,0,3.149,1.465,3.149,3.721c0,2.299-1.304,3.706-3.149,3.706c-0.996,0-1.86-0.513-2.388-1.23v1.055H239.692z
				 M242.9,469.483c1.436,0,2.285-1.157,2.285-2.724c0-1.568-0.85-2.739-2.285-2.739c-0.864,0-1.728,0.527-2.109,1.143v3.208
				C241.171,468.986,242.036,469.483,242.9,469.483z"/>
			<path style="fill:#1D262D;" d="M247.528,472.061c0.161,0.073,0.425,0.117,0.601,0.117c0.483,0,0.805-0.161,1.055-0.747
				l0.469-1.069l-2.959-7.148h1.187l2.358,5.8l2.344-5.8h1.201l-3.545,8.51c-0.425,1.025-1.143,1.421-2.08,1.435
				c-0.234,0-0.601-0.044-0.806-0.103L247.528,472.061z"/>
		</g>
	</g>
</g>
</svg>
